# xmcd CD database file
#
# Track frame offsets:
#	150
#	28244
#	66942
#	94026
#	128935
#	149830
#	166921
#
# Disc length: 2789 seconds
#
# Revision: 2
# Processed by: cddbd v1.5.2PL0 Copyright (c) Steve Scherf et al.
# Submitted via: CDex 1.51
#
DISCID=670ae307
DTITLE=Alex Corezzi - Alma de Gato
DYEAR=1900
DGENRE=Jazz
TTITLE0=Baião de 3 e Meio (Marcos Diniz)
TTITLE1=Diamante (Bráulio Araujo)
TTITLE2=Descarrilhando (Marcos Diniz)
TTITLE3=Alma de Gato (Alex Corezzi)
TTITLE4=B.B. (Renato Bandeira)
TTITLE5=Tempo Bom (Ranieri Oliveira)
TTITLE6=De Leve na Curva (Alex Corezzi)
EXTD=
EXTT0=
EXTT1=
EXTT2=
EXTT3=
EXTT4=
EXTT5=
EXTT6=
PLAYORDER=
